<?xml version="1.0" encoding="UTF-8"?>
<svg id="Capa_1" data-name="Capa 1" xmlns="http://www.w3.org/2000/svg" viewBox="0 0 121.78 121.78">
  <defs>
    <style>
      .cls-1 {
        fill: #d3a068;
        stroke-width: 0px;
      }
    </style>
  </defs>
  <path class="cls-1" d="m60.89,9c28.61,0,51.89,23.28,51.89,51.89s-23.28,51.89-51.89,51.89S9,89.5,9,60.89,32.28,9,60.89,9m0-2.7C30.74,6.3,6.3,30.74,6.3,60.89s24.44,54.59,54.59,54.59,54.59-24.44,54.59-54.59S91.04,6.3,60.89,6.3h0Z"/>
  <path class="cls-1" d="m60.89,80.44c-10.78,0-19.55-8.77-19.55-19.55s8.77-19.55,19.55-19.55,19.55,8.77,19.55,19.55-8.77,19.55-19.55,19.55Zm0-36.4c-9.29,0-16.85,7.56-16.85,16.85s7.56,16.85,16.85,16.85,16.85-7.56,16.85-16.85-7.56-16.85-16.85-16.85Z"/>
</svg>