<?xml version="1.0" encoding="UTF-8"?>
<svg id="Capa_1" data-name="Capa 1" xmlns="http://www.w3.org/2000/svg" viewBox="0 0 121.78 121.78">
  <defs>
    <style>
      .cls-1 {
        fill: #d3a068;
        stroke-width: 0px;
      }
    </style>
  </defs>
  <path class="cls-1" d="m60.89,9c28.61,0,51.89,23.28,51.89,51.89s-23.28,51.89-51.89,51.89S9,89.5,9,60.89,32.28,9,60.89,9m0-2.7C30.74,6.3,6.3,30.74,6.3,60.89s24.44,54.59,54.59,54.59,54.59-24.44,54.59-54.59S91.04,6.3,60.89,6.3h0Z"/>
  <path class="cls-1" d="m39.66,86.5c-9.1,0-16.51-7.41-16.51-16.51h2.7c0,7.62,6.19,13.81,13.81,13.81s13.81-6.19,13.81-13.81v-33.36h2.7v33.36c0,9.1-7.41,16.51-16.51,16.51Z"/>
  <path class="cls-1" d="m82.12,86.51c-9.1,0-16.51-7.41-16.51-16.51v-33.38h2.7v33.38c0,7.62,6.19,13.81,13.81,13.81s13.81-6.19,13.81-13.81h2.7c0,9.1-7.41,16.51-16.51,16.51Z"/>
</svg>