<?xml version="1.0" encoding="UTF-8"?>
<svg id="Capa_1" data-name="Capa 1" xmlns="http://www.w3.org/2000/svg" viewBox="0 0 121.78 121.78">
  <defs>
    <style>
      .cls-1 {
        fill: #d3a068;
        stroke-width: 0px;
      }
    </style>
  </defs>
  <path class="cls-1" d="m60.89,9c28.61,0,51.89,23.28,51.89,51.89s-23.28,51.89-51.89,51.89S9,89.5,9,60.89,32.28,9,60.89,9m0-2.7C30.74,6.3,6.3,30.74,6.3,60.89s24.44,54.59,54.59,54.59,54.59-24.44,54.59-54.59S91.04,6.3,60.89,6.3h0Z"/>
  <g>
    <path class="cls-1" d="m97.28,74.38c-5.11,0-7.74-2.65-10.06-4.98-2.23-2.25-4.15-4.19-8.14-4.19s-5.91,1.93-8.14,4.19c-2.32,2.33-4.95,4.98-10.06,4.98s-7.74-2.65-10.05-4.98c-2.23-2.25-4.15-4.19-8.14-4.19s-5.91,1.93-8.14,4.19c-2.32,2.33-4.95,4.98-10.05,4.98v-2.7c3.99,0,5.91-1.93,8.14-4.19,2.32-2.33,4.95-4.98,10.05-4.98s7.74,2.65,10.05,4.98c2.23,2.25,4.15,4.19,8.14,4.19s5.91-1.93,8.14-4.19c2.32-2.33,4.95-4.98,10.06-4.98s7.74,2.65,10.06,4.98c2.23,2.25,4.15,4.19,8.14,4.19v2.7Z"/>
    <path class="cls-1" d="m97.28,59.28c-5.11,0-7.74-2.65-10.06-4.98-2.23-2.25-4.15-4.19-8.14-4.19s-5.91,1.93-8.14,4.19c-2.32,2.33-4.95,4.98-10.06,4.98s-7.74-2.65-10.05-4.98c-2.23-2.25-4.15-4.19-8.14-4.19s-5.91,1.93-8.14,4.19c-2.32,2.33-4.95,4.98-10.05,4.98v-2.7c3.99,0,5.91-1.93,8.14-4.19,2.32-2.33,4.95-4.98,10.05-4.98s7.74,2.65,10.05,4.98c2.23,2.25,4.15,4.19,8.14,4.19s5.91-1.93,8.14-4.19c2.32-2.33,4.95-4.98,10.06-4.98s7.74,2.65,10.06,4.98c2.23,2.25,4.15,4.19,8.14,4.19v2.7Z"/>
  </g>
</svg>